<?xml version="1.0" encoding="utf-8"?>
<!-- Generator: Adobe Illustrator 26.3.1, SVG Export Plug-In . SVG Version: 6.00 Build 0)  -->
<svg version="1.1" id="Layer_1" xmlns="http://www.w3.org/2000/svg" xmlns:xlink="http://www.w3.org/1999/xlink" x="0px" y="0px"
	 viewBox="0 0 72 72" style="enable-background:new 0 0 72 72;" xml:space="preserve">
<style type="text/css">
	.st0{clip-path:url(#SVGID_00000044865233763162978100000011216614936347366560_);}
	.st1{clip-path:url(#SVGID_00000077303533828869643370000012243662631517498255_);}
	.st2{clip-path:url(#SVGID_00000098212304801187810480000004627544790044287135_);}
	.st3{clip-path:url(#SVGID_00000005984576492647925720000010506452662772378032_);}
	.st4{clip-path:url(#SVGID_00000093161795833789521820000003119174208907533974_);}
	
		.st5{clip-path:url(#SVGID_00000071543163532830011980000004921213694172768678_);fill-rule:evenodd;clip-rule:evenodd;fill:#FFFFFF;}
	.st6{clip-path:url(#SVGID_00000106114293517419453640000004218235873618450326_);}
	.st7{clip-path:url(#SVGID_00000057109334409571335570000003118755624795197320_);}
	.st8{clip-path:url(#SVGID_00000169538774578485035600000014036325868886909861_);}
	.st9{clip-path:url(#SVGID_00000087397172141839105670000010991721535287557789_);}
	
		.st10{clip-path:url(#SVGID_00000020395978063394084710000010038796666168075439_);fill-rule:evenodd;clip-rule:evenodd;fill:#FFFFFF;}
	.st11{fill:#FFFFFF;}
	.st12{font-family:'Cinzel-Regular';}
	.st13{font-size:4.2167px;}
	.st14{font-family:'CinzelDecorative-Regular';}
	.st15{font-size:18.7882px;}
	.st16{fill:none;stroke:#FFFFFF;stroke-width:0.2921;}
</style>
<g>
	<defs>
		<rect id="SVGID_00000031169673327121129040000000829159905550106004_" x="-246.09" y="-32.94" width="375" height="375"/>
	</defs>
	<clipPath id="SVGID_00000165219241948528476930000001832215320802958464_">
		<use xlink:href="#SVGID_00000031169673327121129040000000829159905550106004_"  style="overflow:visible;"/>
	</clipPath>
</g>
<g>
	<text transform="matrix(0.5401 -0.8416 0.8416 0.5401 11.2872 21.8629)" class="st11 st12 st13">D</text>
	<text transform="matrix(0.694 -0.72 0.72 0.694 15.1362 16.606)" class="st11 st12 st13">I</text>
	<text transform="matrix(0.8208 -0.5712 0.5712 0.8208 18.444 13.4806)" class="st11 st12 st13">G</text>
	<text transform="matrix(0.9163 -0.4005 0.4005 0.9163 23.9782 10.1149)" class="st11 st12 st13">I</text>
	<text transform="matrix(0.9739 -0.2271 0.2271 0.9739 28.2498 8.5056)" class="st11 st12 st13">T</text>
	<text transform="matrix(0.9998 -0.0194 0.0194 0.9998 33.8685 7.5063)" class="st11 st12 st13">A</text>
	<text transform="matrix(0.9827 0.1853 -0.1853 0.9827 39.9707 7.7405)" class="st11 st12 st13">L</text>
	<text transform="matrix(0.9282 0.3722 -0.3722 0.9282 45.3019 9.055)" class="st11 st12 st13">L</text>
	<text transform="matrix(0.8326 0.5539 -0.5539 0.8326 50.2731 11.359)" class="st11 st12 st13">A</text>
	<text transform="matrix(0.696 0.7181 -0.7181 0.696 55.1525 15.0116)" class="st11 st12 st13">R</text>
	<text transform="matrix(0.531 0.8474 -0.8474 0.531 59.053 19.5124)" class="st11 st12 st13">K</text>
	<text transform="matrix(0.5116 0.8592 -0.8592 0.5116 8.7259 50.3234)" class="st11 st12 st13">D</text>
	<text transform="matrix(0.6639 0.7478 -0.7478 0.6639 12.5429 55.9288)" class="st11 st12 st13">I</text>
	<text transform="matrix(0.7921 0.6104 -0.6104 0.7921 15.9061 59.3749)" class="st11 st12 st13">G</text>
	<text transform="matrix(0.8923 0.4514 -0.4514 0.8923 21.4877 63.1586)" class="st11 st12 st13">I</text>
	<text transform="matrix(0.9574 0.2887 -0.2887 0.9574 25.8722 65.1032)" class="st11 st12 st13">T</text>
	<text transform="matrix(0.9959 0.0906 -0.0906 0.9959 31.7077 66.5236)" class="st11 st12 st13">A</text>
	<text transform="matrix(0.9942 -0.1072 0.1072 0.9942 38.1016 66.7371)" class="st11 st12 st13">L</text>
	<text transform="matrix(0.9631 -0.2691 0.2691 0.9631 43.7457 65.7971)" class="st11 st12 st13"> </text>
	<text transform="matrix(0.9058 -0.4237 0.4237 0.9058 47.9299 64.3956)" class="st11 st12 st13">L</text>
	<text transform="matrix(0.8047 -0.5937 0.5937 0.8047 53.0167 61.6777)" class="st11 st12 st13">A</text>
	<text transform="matrix(0.666 -0.746 0.746 0.666 57.9526 57.5911)" class="st11 st12 st13">R</text>
	<text transform="matrix(0.5024 -0.8646 0.8646 0.5024 61.8523 52.6985)" class="st11 st12 st13">K</text>
	<text transform="matrix(1 0 0 1 13.3594 40.4519)" class="st11 st14 st15">D</text>
	<line class="st16" x1="35.83" y1="23.62" x2="35.68" y2="46.14"/>
	<text transform="matrix(1 0 0 1 44.4736 41.2908)" class="st11 st14 st15">L</text>
</g>
</svg>
